<svg width="287" height="70" viewBox="0 0 287 70" fill="none" xmlns="http://www.w3.org/2000/svg">
<path d="M10 59.1803L27.5039 11.3661H37.3499L54.8538 59.1803H45.5548L41.7259 48.1148H23.0596L19.1622 59.1803H10ZM25.4527 41.2842H39.3327L32.3585 21.4071L25.4527 41.2842Z" fill="white"/>
<path d="M60.8142 59.1803V25.3005H68.6089L69.4294 31.653C70.6601 29.4672 72.3239 27.7368 74.4207 26.4617C76.5631 25.1412 79.0702 24.4809 81.9419 24.4809V33.7022H79.4804C77.566 33.7022 75.8566 33.9982 74.3523 34.5902C72.8481 35.1821 71.6629 36.2067 70.7969 37.6639C69.9764 39.1211 69.5661 41.1475 69.5661 43.7432V59.1803H60.8142Z" fill="white"/>
<path d="M103.938 60C100.473 60 97.4194 59.2486 94.7755 57.7459C92.1317 56.2432 90.0349 54.1485 88.4851 51.4618C86.9808 48.775 86.2287 45.7013 86.2287 42.2404C86.2287 38.7796 86.9808 35.7058 88.4851 33.0191C90.0349 30.3324 92.1317 28.2377 94.7755 26.735C97.4194 25.2322 100.473 24.4809 103.938 24.4809C108.268 24.4809 111.915 25.6193 114.878 27.8962C117.841 30.1275 119.732 33.224 120.553 37.1858H111.322C110.866 35.5464 109.955 34.2714 108.587 33.3607C107.265 32.4044 105.693 31.9262 103.869 31.9262C101.453 31.9262 99.4022 32.837 97.7157 34.6585C96.0291 36.48 95.1858 39.0073 95.1858 42.2404C95.1858 45.4736 96.0291 48.0009 97.7157 49.8224C99.4022 51.6439 101.453 52.5546 103.869 52.5546C105.693 52.5546 107.265 52.0993 108.587 51.1885C109.955 50.2778 110.866 48.98 111.322 47.2951H120.553C119.732 51.1202 117.841 54.194 114.878 56.5164C111.915 58.8388 108.268 60 103.938 60Z" fill="white"/>
<path d="M125.449 59.1803L142.953 11.3661H152.799L170.303 59.1803H161.004L157.175 48.1148H138.509L134.611 59.1803H125.449ZM140.902 41.2842H154.782L147.808 21.4071L140.902 41.2842Z" fill="white"/>
<path d="M176.263 59.1803V25.3005H184.058L184.878 31.653C186.109 29.4672 187.773 27.7368 189.87 26.4617C192.012 25.1412 194.519 24.4809 197.391 24.4809V33.7022H194.93C193.015 33.7022 191.306 33.9982 189.801 34.5902C188.297 35.1821 187.112 36.2067 186.246 37.6639C185.425 39.1211 185.015 41.1475 185.015 43.7432V59.1803H176.263Z" fill="white"/>
<path d="M219.387 60C215.923 60 212.868 59.2486 210.225 57.7459C207.581 56.2432 205.484 54.1485 203.934 51.4618C202.43 48.775 201.678 45.7013 201.678 42.2404C201.678 38.7796 202.43 35.7058 203.934 33.0191C205.484 30.3324 207.581 28.2377 210.225 26.735C212.868 25.2322 215.923 24.4809 219.387 24.4809C223.717 24.4809 227.364 25.6193 230.327 27.8962C233.29 30.1275 235.181 33.224 236.002 37.1858H226.771C226.315 35.5464 225.404 34.2714 224.036 33.3607C222.714 32.4044 221.142 31.9262 219.318 31.9262C216.903 31.9262 214.851 32.837 213.165 34.6585C211.478 36.48 210.635 39.0073 210.635 42.2404C210.635 45.4736 211.478 48.0009 213.165 49.8224C214.851 51.6439 216.903 52.5546 219.318 52.5546C221.142 52.5546 222.714 52.0993 224.036 51.1885C225.404 50.2778 226.315 48.98 226.771 47.2951H236.002C235.181 51.1202 233.29 54.194 230.327 56.5164C227.364 58.8388 223.717 60 219.387 60Z" fill="white"/>
<path d="M243.77 59.1803V10H252.522V30.4918C253.661 28.6248 255.188 27.1676 257.103 26.1202C259.063 25.0273 261.297 24.4809 263.804 24.4809C267.997 24.4809 271.234 25.8015 273.513 28.4426C275.838 31.0838 277 34.9545 277 40.0546V59.1803H268.316V40.8743C268.316 37.9599 267.724 35.7286 266.539 34.1803C265.399 32.6321 263.576 31.8579 261.069 31.8579C258.607 31.8579 256.556 32.7231 254.915 34.4536C253.32 36.184 252.522 38.5974 252.522 41.694V59.1803H243.77Z" fill="white"/>
</svg>
