<svg width="140" height="44" viewBox="0 0 140 44" fill="none" xmlns="http://www.w3.org/2000/svg">
<path d="M10 32.8633L17.8669 11.3822H22.2921L30.159 32.8633H25.9797L24.2588 27.892H15.8695L14.1178 32.8633H10ZM16.945 24.8232H23.1833L20.0488 15.8933L16.945 24.8232Z" fill="white"/>
<path d="M32.8378 32.8633V17.6424H36.3411L36.7098 20.4963C37.263 19.5144 38.0107 18.7369 38.9531 18.1641C39.916 17.5708 41.0428 17.2742 42.3335 17.2742V21.417H41.2272C40.3667 21.417 39.5985 21.5499 38.9224 21.8159C38.2463 22.0819 37.7137 22.5422 37.3244 23.1968C36.9557 23.8515 36.7713 24.7619 36.7713 25.928V32.8633H32.8378Z" fill="white"/>
<path d="M52.2192 33.2315C50.6622 33.2315 49.2896 32.894 48.1014 32.2189C46.9131 31.5438 45.9707 30.6027 45.2742 29.3956C44.5981 28.1886 44.2601 26.8077 44.2601 25.2529C44.2601 23.698 44.5981 22.3171 45.2742 21.1101C45.9707 19.9031 46.9131 18.962 48.1014 18.2869C49.2896 17.6117 50.6622 17.2742 52.2192 17.2742C54.1655 17.2742 55.8044 17.7856 57.1361 18.8085C58.4677 19.811 59.3179 21.2022 59.6867 22.982H55.5381C55.3332 22.2455 54.9235 21.6727 54.3089 21.2635C53.7148 20.8339 53.008 20.6191 52.1885 20.6191C51.1027 20.6191 50.1808 21.0283 49.4228 21.8466C48.6648 22.6649 48.2858 23.8003 48.2858 25.2529C48.2858 26.7054 48.6648 27.8408 49.4228 28.6591C50.1808 29.4775 51.1027 29.8866 52.1885 29.8866C53.008 29.8866 53.7148 29.6821 54.3089 29.2729C54.9235 28.8637 55.3332 28.2807 55.5381 27.5237H59.6867C59.3179 29.2422 58.4677 30.6231 57.1361 31.6665C55.8044 32.7099 54.1655 33.2315 52.2192 33.2315Z" fill="white"/>
<path d="M61.8872 32.8633L69.7542 11.3822H74.1793L82.0462 32.8633H77.8669L76.146 27.892H67.7567L66.0051 32.8633H61.8872ZM68.8323 24.8232H75.0705L71.936 15.8933L68.8323 24.8232Z" fill="white"/>
<path d="M84.7251 32.8633V17.6424H88.2283L88.5971 20.4963C89.1502 19.5144 89.898 18.7369 90.8404 18.1641C91.8032 17.5708 92.93 17.2742 94.2207 17.2742V21.417H93.1144C92.254 21.417 91.4857 21.5499 90.8096 21.8159C90.1336 22.0819 89.6009 22.5422 89.2117 23.1968C88.8429 23.8515 88.6585 24.7619 88.6585 25.928V32.8633H84.7251Z" fill="white"/>
<path d="M104.106 33.2315C102.549 33.2315 101.177 32.894 99.9886 32.2189C98.8004 31.5438 97.858 30.6027 97.1614 29.3956C96.4854 28.1886 96.1473 26.8077 96.1473 25.2529C96.1473 23.698 96.4854 22.3171 97.1614 21.1101C97.858 19.9031 98.8004 18.962 99.9886 18.2869C101.177 17.6117 102.549 17.2742 104.106 17.2742C106.053 17.2742 107.692 17.7856 109.023 18.8085C110.355 19.811 111.205 21.2022 111.574 22.982H107.425C107.22 22.2455 106.811 21.6727 106.196 21.2635C105.602 20.8339 104.895 20.6191 104.076 20.6191C102.99 20.6191 102.068 21.0283 101.31 21.8466C100.552 22.6649 100.173 23.8003 100.173 25.2529C100.173 26.7054 100.552 27.8408 101.31 28.6591C102.068 29.4775 102.99 29.8866 104.076 29.8866C104.895 29.8866 105.602 29.6821 106.196 29.2729C106.811 28.8637 107.22 28.2807 107.425 27.5237H111.574C111.205 29.2422 110.355 30.6231 109.023 31.6665C107.692 32.7099 106.053 33.2315 104.106 33.2315Z" fill="white"/>
<path d="M115.065 32.8633V10.7685H118.999V19.9747C119.511 19.1359 120.197 18.4812 121.058 18.0107C121.938 17.5197 122.942 17.2742 124.069 17.2742C125.954 17.2742 127.408 17.8675 128.433 19.054C129.478 20.2406 130 21.9796 130 24.2709V32.8633H126.097V24.6391C126.097 23.3298 125.831 22.3274 125.298 21.6318C124.786 20.9362 123.967 20.5884 122.84 20.5884C121.734 20.5884 120.812 20.9771 120.074 21.7545C119.357 22.5319 118.999 23.6162 118.999 25.0074V32.8633H115.065Z" fill="white"/>
</svg>
